<?xml version="1.0"?>
<svg xmlns="http://www.w3.org/2000/svg" xmlns:xlink="http://www.w3.org/1999/xlink" id="Gradient" viewBox="0 0 512 512" width="512" height="512"><defs><linearGradient id="linear-gradient" x1="256.838" y1="496" x2="256.838" y2="17.388" gradientUnits="userSpaceOnUse"><stop offset="0" stop-color="#27c1e6"/><stop offset="0.5" stop-color="#c275e9"/><stop offset="1" stop-color="#f2515d"/></linearGradient></defs><path d="M112.247,232H104a8,8,0,0,0-7.935,9.024l28.4,220.1A40.1,40.1,0,0,0,164.137,496H347.863a40.1,40.1,0,0,0,39.672-34.881l28.4-220.1A8,8,0,0,0,408,232h-5.547l35.071-84.682,19.959-14.791A39.843,39.843,0,0,0,473.12,93.789l-9.23-55.11a8,8,0,0,0-12.535-5.193L405.861,65.929a39.853,39.853,0,0,0-16.334,38.458l3.654,24.56L350.5,232H335.69V168.568l7.92-55.437a8,8,0,0,0-1.263-5.569l-32-48a8,8,0,0,0-13.313,0l-32,48a8,8,0,0,0-1.263,5.569l7.919,55.437V232H256V192h-.016a7.968,7.968,0,0,0-.673-3.25l-32-72a8,8,0,0,0-14.622,0L187.84,163.662,129.3,22.329A8,8,0,0,0,118.849,18L44.938,48.609a8,8,0,0,0-4.329,10.453ZM192,211.313l2.343,2.343a8,8,0,0,0,9.235,1.5L208,212.944V232H192ZM398.9,248l-6.193,48H119.292L113.1,248ZM371.666,459.071A24.056,24.056,0,0,1,347.863,480H164.137a24.056,24.056,0,0,1-23.8-20.929L121.357,312H390.643Zm30.5-268.188L387.38,184.76l18.369-44.346,14.78,6.125Zm12.99-111.929,35.071-25.009,7.115,42.482a23.913,23.913,0,0,1-9.383,23.245l-18.1,13.413L408.667,124.3l-3.313-22.27A23.916,23.916,0,0,1,415.154,78.954Zm-33.9,120.588,14.784,6.124L385.134,232H367.812ZM319.69,176v16h-32V176Zm-24-85.577V120a8,8,0,0,0,16,0V90.422L327.339,113.9,320.752,160H286.629l-6.587-46.1ZM287.69,208h32v24h-32ZM224,232V212.944l4.422,2.211a8,8,0,0,0,9.235-1.5L240,211.313V232Zm6.42-33.734-10.842-5.422a8.006,8.006,0,0,0-7.156,0l-10.842,5.422-8.038-8.038L199.866,176h32.268l6.324,14.228ZM216,139.7l9.023,20.3H206.977ZM117.58,35.842l61.3,147.989-2.187,4.919a7.968,7.968,0,0,0-.673,3.25H176v40H145.724l8.376-3.47a8,8,0,0,0-6.12-14.78l-22.174,9.176-6.122-14.78,7.386-3.056a8,8,0,1,0-6.12-14.78l-7.388,3.057-6.125-14.784L129.61,169.4a8,8,0,1,0-6.12-14.78L101.315,163.8l-6.124-14.785,7.389-3.058a8,8,0,1,0-6.12-14.78l-7.39,3.061-6.126-14.787,22.176-9.184a8,8,0,1,0-6.13-14.78l-22.168,9.184L70.7,89.894,78.09,86.83a8,8,0,1,0-6.12-14.78l-7.395,3.058L58.453,60.33Z" style="fill:url(#linear-gradient)"/></svg>
