<?xml version="1.0" standalone="no"?>
<!DOCTYPE svg PUBLIC "-//W3C//DTD SVG 20010904//EN"
 "http://www.w3.org/TR/2001/REC-SVG-20010904/DTD/svg10.dtd">
<svg version="1.0" xmlns="http://www.w3.org/2000/svg"
 width="640.000000pt" height="1280.000000pt" viewBox="0 0 640.000000 1280.000000"
 preserveAspectRatio="xMidYMid meet">
<metadata>
Created by potrace 1.15, written by Peter Selinger 2001-2017
</metadata>
<g transform="translate(0.000000,1280.000000) scale(0.100000,-0.100000)"
fill="#000000" stroke="none">
<path d="M4330 12782 c-56 -28 -75 -77 -77 -205 l-2 -108 -44 -39 c-66 -58
-81 -97 -74 -192 5 -71 3 -81 -16 -102 -12 -13 -48 -34 -80 -46 -89 -35 -106
-74 -66 -152 17 -33 19 -45 9 -62 -24 -47 -5 -131 36 -154 23 -13 12 -63 -29
-131 -80 -133 -97 -164 -123 -228 -52 -128 -43 -273 22 -334 22 -21 34 -23
102 -22 55 1 96 8 144 27 69 25 173 86 196 115 21 24 20 23 -191 -459 -229
-523 -408 -917 -444 -980 -46 -78 -114 -140 -258 -235 -77 -51 -152 -106 -167
-121 -63 -69 -369 -460 -430 -551 -37 -55 -95 -149 -129 -209 -34 -60 -85
-143 -114 -184 -70 -99 -225 -279 -311 -360 -100 -94 -465 -331 -776 -504 -85
-47 -110 -77 -169 -201 -87 -183 -187 -492 -223 -686 -40 -215 -70 -682 -64
-994 4 -207 5 -211 37 -300 18 -49 55 -164 82 -255 28 -91 66 -203 86 -250 78
-188 86 -223 87 -367 l1 -132 -36 -38 c-78 -81 -93 -140 -129 -536 -11 -120
-25 -249 -30 -286 -5 -37 -16 -146 -25 -242 -8 -96 -24 -246 -35 -334 -50
-407 -59 -624 -30 -728 16 -54 37 -47 49 15 15 80 20 134 31 366 10 186 15
225 40 314 16 56 34 135 41 177 21 141 28 153 25 41 -2 -58 -14 -163 -27 -235
-22 -121 -24 -151 -21 -435 3 -328 -11 -490 -59 -668 -34 -129 -36 -278 -4
-289 6 -1 34 67 64 152 29 85 55 155 57 155 2 0 1 -20 -2 -44 -13 -91 30 -238
91 -311 33 -40 45 -22 33 48 -16 83 -4 142 52 252 42 83 54 120 71 215 18 106
37 343 39 500 l1 65 14 -35 c52 -132 85 -233 90 -280 11 -102 16 -120 30 -120
19 0 30 73 29 195 0 89 -4 111 -38 205 -108 302 -176 548 -177 646 0 39 10 97
29 165 62 215 73 299 61 450 -14 185 -52 385 -108 568 -27 87 -59 307 -46 319
6 6 40 -73 59 -139 9 -29 25 -106 35 -173 11 -67 34 -166 51 -221 17 -55 56
-190 87 -300 l56 -200 3 -216 c3 -237 11 -284 66 -394 l31 -60 -7 -225 c-3
-124 -11 -306 -17 -405 -6 -99 -14 -418 -18 -710 -7 -513 -8 -532 -30 -590
-12 -33 -35 -109 -52 -170 -16 -60 -36 -124 -45 -142 -18 -39 -68 -329 -60
-349 8 -22 84 -52 186 -75 86 -18 94 -18 153 -3 72 18 123 47 132 74 11 34
-51 251 -90 315 -6 11 -27 127 -45 259 l-34 239 12 201 c7 110 21 302 32 426
11 124 26 333 35 465 33 514 38 537 149 724 76 128 91 176 90 286 -1 109 -33
218 -94 315 -70 113 -70 112 -70 594 0 237 4 505 10 596 5 91 10 247 12 348 1
100 5 182 8 182 3 0 40 -87 82 -192 231 -575 358 -1013 358 -1229 0 -62 -6
-83 -61 -211 -33 -79 -67 -170 -76 -203 -27 -105 -15 -155 145 -610 63 -178
81 -258 106 -465 48 -391 54 -492 70 -1186 13 -543 15 -507 -34 -729 -36 -162
-53 -396 -30 -410 5 -3 60 -15 122 -26 89 -17 136 -20 221 -16 151 8 157 12
157 125 0 96 -22 254 -44 317 -9 26 -16 106 -20 225 -3 102 -10 212 -15 245
-33 210 -41 283 -51 486 -19 375 -18 782 3 934 29 214 46 280 126 484 l76 196
-2 135 c-1 161 -20 266 -63 350 -30 60 -32 69 -40 239 -5 97 -9 307 -10 466 0
338 7 388 105 705 66 217 94 289 116 303 28 18 73 -3 126 -60 l53 -55 0 -81
c0 -45 -9 -167 -20 -272 -22 -207 -43 -682 -34 -756 10 -72 -37 -440 -65 -512
-20 -52 -24 -165 -12 -340 14 -219 31 -326 85 -562 63 -269 74 -326 101 -519
49 -345 56 -426 65 -761 10 -352 11 -367 64 -559 32 -116 60 -189 85 -225 17
-24 18 -33 6 -106 -7 -44 -16 -114 -20 -156 l-7 -76 38 -18 c47 -22 353 -42
424 -28 l45 9 -2 50 c-3 82 -85 286 -138 344 -13 14 -30 52 -40 85 -9 33 -43
146 -75 250 -134 436 -151 505 -175 686 -20 161 -32 335 -45 664 -13 300 -9
390 21 554 28 156 26 181 -27 312 -57 141 -65 221 -40 439 21 178 100 654 127
758 32 127 119 405 192 617 105 305 111 321 162 450 64 162 111 298 143 419
25 94 27 114 26 301 0 211 -8 291 -85 895 -47 370 -89 660 -124 855 -14 77
-25 160 -25 184 0 55 24 220 56 381 45 229 497 2194 584 2539 38 150 43 165
107 267 l68 108 1 196 c1 210 -3 187 66 352 24 56 25 57 47 41 13 -8 44 -22
69 -29 65 -20 73 -9 64 81 -8 76 0 148 20 172 7 8 36 29 66 46 32 18 58 40 64
56 11 28 3 130 -11 144 -20 20 -129 -55 -262 -181 l-57 -53 -25 25 c-14 14
-38 28 -54 31 -99 21 -105 96 -28 321 25 72 45 146 45 165 0 73 -65 128 -160
137 -84 7 -93 -2 -139 -140 -42 -126 -87 -219 -108 -225 -6 -3 -17 5 -23 16
-18 35 -41 212 -34 273 6 50 4 57 -14 67 -31 17 -113 13 -152 -7z m-2964
-10399 c5 -43 8 -141 9 -218 l0 -140 -54 -112 c-30 -62 -56 -112 -57 -110 -1
1 9 40 22 86 18 63 27 126 34 255 14 249 21 316 30 316 5 0 12 -35 16 -77z"/>
</g>
</svg>
