<?xml version="1.0" standalone="no"?>
<!DOCTYPE svg PUBLIC "-//W3C//DTD SVG 20010904//EN"
 "http://www.w3.org/TR/2001/REC-SVG-20010904/DTD/svg10.dtd">
<svg version="1.0" xmlns="http://www.w3.org/2000/svg"
 width="992.000000pt" height="1280.000000pt" viewBox="0 0 992.000000 1280.000000"
 preserveAspectRatio="xMidYMid meet">
<metadata>
Created by potrace 1.15, written by Peter Selinger 2001-2017
</metadata>
<g transform="translate(0.000000,1280.000000) scale(0.100000,-0.100000)"
fill="#000000" stroke="none">
<path d="M4642 12790 c-37 -16 -361 -346 -378 -385 -19 -47 -18 -64 11 -147
32 -92 31 -122 -5 -184 -41 -72 -110 -131 -380 -324 -450 -322 -527 -386 -751
-628 -162 -174 -234 -232 -289 -232 -18 0 -47 22 -101 74 -93 90 -153 117
-282 124 -107 6 -198 -20 -283 -79 -75 -53 -112 -71 -132 -65 -10 4 -35 27
-56 52 -42 50 -144 120 -215 148 -60 23 -125 22 -193 -4 -73 -27 -170 -98
-203 -148 -43 -65 -43 -99 0 -207 59 -149 102 -215 158 -246 80 -43 81 -45 58
-119 -22 -70 -19 -80 29 -100 17 -7 30 -15 30 -19 0 -10 -58 -105 -82 -134
-23 -28 -23 -28 -60 -13 -44 19 -116 20 -207 5 -127 -22 -181 -64 -181 -142 0
-45 -13 -59 -100 -108 -106 -59 -141 -89 -210 -181 -66 -88 -110 -166 -110
-197 0 -25 30 -46 92 -67 31 -10 48 -21 48 -32 0 -8 -38 -91 -85 -184 -115
-225 -156 -350 -162 -488 -6 -122 7 -329 43 -660 36 -334 36 -329 -30 -469
-31 -64 -56 -129 -56 -144 0 -15 16 -59 36 -98 l35 -71 -36 -60 c-35 -55 -36
-63 -30 -116 l6 -57 -162 -155 c-90 -85 -183 -182 -207 -215 -134 -181 -211
-445 -199 -679 7 -147 39 -265 187 -706 66 -195 120 -367 120 -382 0 -15 -12
-62 -26 -105 -27 -84 -25 -53 -59 -748 -41 -833 -58 -1085 -106 -1529 -46
-429 -46 -431 -22 -421 10 4 94 13 188 21 93 8 177 17 187 20 9 3 33 2 53 -2
56 -10 62 -35 36 -146 -30 -123 -40 -262 -30 -417 9 -146 7 -133 64 -431 24
-124 51 -295 59 -380 9 -85 26 -204 37 -265 11 -60 24 -159 29 -218 10 -120
30 -195 61 -223 18 -17 38 -19 153 -19 72 0 187 4 256 9 96 6 155 4 252 -8
188 -24 335 -21 449 8 126 32 276 90 305 117 35 33 33 91 -4 129 -42 41 -90
51 -218 43 -98 -5 -120 -3 -185 16 -73 23 -177 71 -234 110 -68 47 -147 137
-185 213 -48 97 -63 165 -57 271 43 787 54 919 92 1065 28 110 54 123 250 121
112 -2 129 0 153 18 45 34 49 76 19 210 -38 170 -77 731 -98 1443 -19 619 7
1485 57 1900 20 169 71 472 99 595 45 192 44 231 -17 454 l-31 114 20 16 c12
9 24 32 28 51 4 19 15 44 25 55 15 16 19 46 25 165 6 137 8 147 35 185 53 77
72 162 94 431 8 88 19 170 25 182 11 22 62 48 241 126 141 62 197 105 235 181
27 55 30 68 30 165 0 136 11 115 -279 530 -120 172 -127 188 -107 257 11 38
-5 74 -55 119 -27 25 -34 39 -34 68 l0 36 50 -25 c83 -42 125 -30 151 43 10
30 14 32 52 30 39 -3 41 -1 61 40 20 39 23 42 63 42 45 0 73 25 73 66 0 33 7
34 70 8 33 -13 68 -24 78 -24 30 0 49 30 66 100 8 36 22 98 32 138 15 67 22
79 73 130 32 32 67 77 79 102 14 30 116 143 312 345 542 558 631 655 710 770
83 121 125 169 345 395 83 85 161 172 174 193 13 22 30 37 42 37 21 0 79 -50
389 -330 607 -550 787 -684 1650 -1230 272 -173 404 -265 427 -299 12 -18 27
-58 33 -89 7 -31 20 -76 30 -99 17 -38 23 -43 52 -43 18 0 55 7 81 15 57 17
140 5 190 -29 30 -20 32 -26 35 -89 2 -44 -12 -161 -42 -344 -66 -408 -77
-492 -171 -1363 -127 -1182 -143 -1303 -185 -1425 -14 -42 -17 -62 -9 -71 6
-7 54 -23 107 -35 192 -43 220 -61 287 -184 61 -114 81 -115 71 -2 -14 148
-14 142 17 145 49 6 193 -51 265 -105 40 -30 59 -65 72 -139 6 -33 15 -297 20
-589 13 -769 21 -824 183 -1295 76 -220 148 -486 211 -780 57 -265 66 -346 64
-561 -2 -222 5 -264 92 -547 28 -89 59 -199 70 -245 18 -76 18 -87 5 -152 -37
-177 -13 -201 162 -165 154 32 166 22 179 -165 3 -50 13 -110 21 -135 11 -32
14 -77 12 -155 -1 -60 -1 -144 0 -185 5 -120 4 -226 -4 -361 l-8 -127 -36 -17
c-77 -37 -337 -146 -395 -166 -40 -13 -99 -23 -171 -26 l-110 -6 -37 -39 c-66
-68 -61 -117 22 -191 106 -94 263 -153 440 -164 79 -5 108 -2 172 16 110 31
272 51 421 51 138 0 202 13 289 56 73 37 83 58 86 199 2 66 3 165 2 220 0 55
8 165 20 245 11 79 20 169 20 200 0 30 7 114 15 185 12 100 14 185 9 368 -4
130 -4 237 0 237 4 0 34 -15 66 -33 57 -31 60 -31 77 -14 16 16 18 34 15 163
-2 104 5 218 24 402 39 370 38 582 -4 832 -44 262 -52 395 -52 915 0 578 15
1003 55 1555 22 296 33 382 65 485 34 111 58 283 66 487 12 278 -27 409 -192
656 -91 136 -110 173 -105 204 0 5 2 31 3 59 2 47 0 53 -31 78 l-34 28 9 84
c16 153 9 232 -31 369 l-37 125 -14 805 c-7 443 -18 873 -23 955 -12 165 -41
311 -96 475 -49 146 -81 198 -173 276 -50 43 -93 91 -123 138 -52 81 -65 89
-210 126 -158 40 -181 64 -198 194 -10 85 -22 106 -57 106 -31 0 -39 22 -53
141 -13 118 -15 199 -6 269 6 51 3 61 -34 137 -59 122 -137 237 -189 284 -26
23 -81 58 -122 79 -153 76 -280 106 -419 97 -92 -6 -385 -73 -438 -101 -76
-39 -109 -123 -126 -317 -15 -192 -2 -317 52 -467 23 -63 41 -118 41 -123 0
-13 -59 1 -111 27 -26 13 -75 45 -110 72 -207 157 -286 197 -508 252 -90 23
-262 76 -381 120 -206 75 -254 87 -525 139 -110 20 -278 84 -470 177 -148 72
-185 107 -214 200 -33 109 -34 125 -11 169 25 49 26 95 0 144 -51 102 -253
197 -338 161z m2474 -2055 c54 -24 204 -121 216 -139 14 -22 -3 -18 -78 18
-82 39 -202 115 -225 142 -12 15 -11 16 11 9 14 -4 48 -17 76 -30z"/>
<path d="M3490 8793 c-92 -15 -164 -61 -212 -135 -55 -84 -118 -207 -109 -213
5 -2 42 34 82 81 41 47 98 104 128 125 46 33 62 39 105 39 90 0 87 -14 -16
-62 -101 -48 -135 -80 -197 -183 -37 -62 -55 -143 -45 -208 3 -21 3 -70 -1
-108 -6 -56 -10 -69 -22 -65 -21 8 -80 -19 -92 -42 -17 -31 -13 -52 14 -87 13
-18 41 -72 61 -121 20 -49 45 -101 55 -115 l18 -26 -124 -12 c-174 -17 -205
-29 -290 -116 -148 -151 -244 -369 -248 -565 -3 -100 18 -87 74 47 63 151 89
193 176 282 91 93 86 80 -32 -74 -51 -66 -100 -135 -109 -154 -23 -44 -32
-131 -17 -160 9 -16 9 -26 1 -35 -6 -8 -9 -27 -8 -43 1 -19 -7 -42 -24 -64
-47 -61 -51 -83 -58 -329 -10 -330 -56 -872 -96 -1120 -25 -154 -23 -429 4
-740 51 -574 69 -659 198 -925 97 -202 105 -230 160 -620 35 -242 40 -420 20
-615 -19 -176 -42 -320 -59 -368 -15 -42 -2 -52 68 -52 72 0 173 -18 221 -39
72 -32 77 -53 72 -340 -5 -274 5 -626 26 -891 9 -110 11 -195 6 -230 -12 -77
-35 -172 -49 -198 -20 -38 -31 -117 -20 -155 20 -73 117 -126 208 -112 56 8
88 25 122 62 47 50 62 90 57 157 -4 56 -2 64 29 107 42 58 43 97 4 174 -17 33
-27 64 -23 69 4 6 7 157 8 336 1 282 4 341 22 450 25 142 28 278 10 458 -6 67
-9 124 -6 127 3 3 71 0 151 -6 108 -8 166 -7 221 1 57 9 80 8 97 -1 22 -11 22
-12 13 -183 -17 -317 -12 -422 27 -581 28 -118 34 -160 35 -270 1 -71 5 -152
9 -178 6 -40 4 -57 -16 -98 l-23 -50 19 -54 c15 -47 16 -62 6 -111 -6 -32 -11
-74 -11 -95 0 -21 -10 -54 -22 -75 -28 -47 -29 -115 -2 -151 41 -55 66 -65
156 -67 101 -1 128 6 172 45 44 38 52 75 31 139 -23 70 -26 190 -6 275 14 61
16 155 16 710 0 352 -4 659 -9 682 -11 56 -1 60 163 69 125 6 133 8 143 30 8
16 4 70 -16 206 -31 218 -56 594 -59 878 l-2 205 23 3 c12 2 22 0 22 -5 0 -17
51 -408 70 -540 33 -221 58 -313 151 -552 40 -100 49 -136 49 -185 0 -77 17
-104 70 -112 63 -10 65 -18 50 -158 -13 -133 -8 -190 30 -330 11 -38 29 -131
40 -207 15 -98 32 -169 58 -237 l37 -97 0 -245 c0 -161 -5 -275 -14 -332 -11
-72 -11 -96 -1 -133 26 -92 140 -185 212 -171 52 10 98 45 126 96 21 40 23 54
19 120 -3 41 -15 104 -27 140 -30 90 -40 281 -50 930 -4 294 -11 550 -15 568
l-7 33 38 -3 c46 -4 54 9 79 127 28 129 23 266 -18 552 -20 138 -39 300 -43
360 l-6 108 41 -55 c67 -91 127 -223 205 -450 92 -270 92 -268 159 -372 51
-80 54 -87 39 -102 -16 -16 -15 -19 7 -37 13 -11 30 -23 37 -27 10 -5 5 -36
-22 -132 -59 -216 -77 -330 -71 -455 5 -127 28 -213 113 -429 43 -111 58 -162
71 -255 25 -175 22 -241 -16 -334 -28 -69 -31 -82 -21 -112 19 -57 140 -136
315 -205 145 -58 174 -64 290 -65 155 0 260 38 283 103 18 54 -20 98 -111 127
-135 44 -360 210 -380 281 -23 79 -27 194 -24 604 3 339 8 477 21 580 9 74 15
146 14 159 -3 20 9 30 87 71 l90 48 -2 43 c-1 26 -10 53 -23 69 -53 66 -54 69
-56 179 -2 109 -7 135 -74 371 -69 243 -100 427 -100 592 l0 88 39 0 c86 0 89
17 25 135 -41 76 -49 101 -74 242 -54 300 -110 720 -110 827 l0 50 35 -34 c78
-76 136 -235 255 -709 70 -281 90 -423 90 -660 0 -160 17 -214 70 -232 16 -6
30 -15 30 -21 0 -5 -11 -48 -24 -96 -34 -120 -36 -148 -12 -144 59 11 114 87
156 219 36 112 54 222 46 280 -3 24 -17 82 -31 130 -15 56 -39 205 -65 414
-41 331 -57 430 -129 779 -22 107 -43 224 -46 260 -6 60 -5 67 17 86 12 12 43
29 68 38 59 23 80 43 80 76 0 100 -256 865 -355 1060 -34 67 -79 98 -193 132
-53 16 -101 33 -106 38 -7 7 7 28 39 61 46 46 49 51 32 63 -13 10 -45 12 -125
8 -118 -5 -214 13 -226 44 -8 21 31 177 58 233 17 37 28 47 64 59 55 18 70 42
82 133 17 131 14 156 -19 173 -27 15 -29 19 -40 128 -21 193 -45 261 -118 339
-88 94 -177 130 -368 149 -66 6 -143 9 -172 5 -117 -14 -261 -124 -319 -241
-29 -58 -29 -62 -30 -240 -2 -177 -2 -182 -28 -227 l-27 -46 24 -70 c33 -95
72 -160 100 -165 12 -3 34 -7 48 -10 20 -4 31 -19 52 -71 15 -36 27 -70 27
-76 0 -7 -47 -9 -155 -4 -152 8 -155 7 -155 -13 0 -33 48 -81 139 -140 81 -52
83 -54 65 -71 -11 -10 -82 -39 -159 -66 -171 -58 -185 -65 -248 -123 -57 -54
-87 -107 -87 -156 0 -40 -16 -49 -68 -40 l-35 7 5 159 c3 102 9 163 16 170 7
7 27 17 44 22 31 10 33 15 40 66 9 80 9 408 -1 458 -5 24 -19 54 -32 68 -13
13 -81 54 -153 90 -71 37 -190 104 -265 149 -75 46 -155 95 -178 109 -70 41
-84 74 -81 186 4 113 28 176 101 258 26 29 62 77 82 107 27 43 40 55 60 55 33
0 58 40 84 140 27 99 27 106 -8 118 l-29 10 5 99 c10 184 -19 281 -123 406
-31 37 -54 70 -52 73 3 2 54 -26 114 -62 126 -76 154 -89 154 -71 0 17 -54 68
-153 146 -100 78 -117 87 -224 112 -81 19 -113 20 -155 4 -11 -4 -18 0 -23 15
-9 27 -59 49 -155 66 -76 14 -96 15 -140 7z m-155 -1113 c4 -6 -7 -10 -27 -10
-25 0 -29 3 -18 10 19 13 37 13 45 0z m-15 -175 c7 -8 25 -15 41 -15 34 0 37
-19 14 -96 -21 -72 -69 -139 -133 -184 l-55 -40 -31 20 c-18 10 -37 16 -43 12
-6 -4 -23 -33 -36 -65 -29 -64 -49 -76 -114 -69 -38 4 -45 1 -80 -36 -38 -40
-152 -127 -158 -120 -2 1 13 44 33 93 31 80 44 98 111 165 67 66 415 347 432
349 4 1 12 -6 19 -14z"/>
</g>
</svg>
